<svg width="59" height="79" viewBox="0 0 59 79" fill="none" xmlns="http://www.w3.org/2000/svg">
<g clip-path="url(#clip0_1090_581)">
<path d="M53.1994 46.9683C47.0824 47.9358 42.417 49.8553 38.8495 52.2714C39.604 49.5947 40.9728 47.1908 42.5385 44.6595C45.2326 40.304 47.3422 33.7482 47.3422 29.7347C47.3422 19.3796 39.1486 10.9551 29.0782 10.9551C19.0071 10.9551 10.8133 19.3796 10.8133 29.7348C10.8133 33.7482 12.9232 40.3038 15.6173 44.6595C18.0697 48.625 19.9458 52.0223 19.9458 56.6027V57.4024C16.4459 56.334 11.975 55.6181 6.24746 55.6181C5.83819 55.6239 5.448 55.7921 5.16265 56.0855C4.8773 56.379 4.72015 56.7737 4.72573 57.183C4.72573 57.3938 5.0044 78.2498 29.0784 78.2498C54.6565 78.2498 54.9521 48.8121 54.9521 48.5149C54.9528 48.2907 54.9058 48.0689 54.8144 47.8641C54.723 47.6593 54.5891 47.4763 54.4217 47.3272C54.2569 47.1811 54.0619 47.0733 53.8507 47.0112C53.6395 46.9492 53.4171 46.9345 53.1995 46.9681L53.1994 46.9683ZM18.1856 42.9802C15.84 39.1869 13.8578 33.1212 13.8578 29.7348C13.8578 21.1053 20.6856 14.0853 29.0782 14.0853C37.4709 14.0853 44.2977 21.1053 44.2977 29.7348C44.2977 33.1214 42.3165 39.1871 39.9699 42.9805C38.5602 45.2597 37.2333 47.5495 36.3356 50.0802H33.6436V47.5467C35.1116 46.8387 36.6881 45.0045 36.6881 41.0652C36.6881 39.1703 36.0395 38.048 35.4955 37.4399C33.9703 35.7392 30.9543 35.8344 29.0782 37.6166C27.202 35.8364 24.1841 35.7399 22.6608 37.4399C22.1169 38.048 21.4677 39.1703 21.4677 41.0652C21.4677 45.0045 23.0442 46.8387 24.512 47.5467V50.0802H21.8281C20.9433 47.6076 19.6421 45.3345 18.1858 42.9805L18.1856 42.9802ZM26.0337 44.7902C26.0189 44.7902 24.5118 44.6296 24.5118 41.0649C24.5118 40.3738 24.6488 39.84 24.8999 39.5606C25.5329 38.8521 27.5555 39.7517 27.5555 41.0649C27.5478 41.3368 27.6132 41.6059 27.7449 41.844C27.8765 42.082 28.0695 42.2805 28.3039 42.4187C28.5382 42.557 28.8054 42.6301 29.0775 42.6301C29.3497 42.6302 29.6169 42.5573 29.8513 42.4191C30.0857 42.2809 30.2788 42.0824 30.4105 41.8442C30.5421 41.606 30.6076 41.3369 30.5999 41.0649C30.5999 39.7517 32.6204 38.8521 33.2561 39.5606C33.5066 39.8401 33.6434 40.3738 33.6434 41.0649C33.6434 43.8953 32.6507 44.7389 32.1217 44.7902C31.7124 44.7961 31.3221 44.9642 31.0368 45.2576C30.7514 45.5511 30.5942 45.9459 30.5998 46.3552V50.08H27.5556V46.3552C27.5677 45.5029 26.8862 44.8023 26.0337 44.7902ZM22.6727 53.2099H35.5001C35.3779 53.8627 35.2909 54.5217 35.2396 55.1839C35.0648 55.3539 34.9131 55.5422 34.7443 55.7171C34.6187 55.8473 34.4993 55.979 34.3783 56.1104C32.447 58.186 30.8874 60.5785 29.7677 63.1832C29.742 63.1548 29.7118 63.1258 29.6853 63.0975C29.5332 62.9308 29.3773 62.7677 29.2176 62.6082L29.2163 62.6068C27.8457 61.2347 25.8501 59.7648 22.9892 58.5231V56.6025C22.9865 55.4644 22.8806 54.3288 22.6727 53.2099ZM7.89254 58.7688C13.7441 58.922 18.0041 59.8904 21.1185 61.1342C23.916 62.2497 26.8502 64.0038 28.5502 66.6264C28.5927 66.6917 28.3909 67.2323 28.3688 67.3214C28.279 67.6811 28.1961 68.0422 28.1197 68.4052C27.7893 69.9572 27.5814 71.5327 27.4981 73.1172L14.8754 61.4365C14.7285 61.2992 14.5554 61.193 14.3665 61.1242C14.1776 61.0555 13.9767 61.0256 13.7759 61.0364C13.5753 61.0473 13.3789 61.0986 13.1985 61.1874C13.0182 61.2761 12.8577 61.4003 12.7266 61.5526C12.4557 61.864 12.3162 62.2683 12.3372 62.6804C12.3582 63.0926 12.5381 63.4805 12.8392 63.7628L24.8202 74.8503C11.0792 73.0794 8.40739 62.7917 7.89254 58.7688ZM32.5455 74.8935L46.9817 57.3509C47.5242 56.6875 47.4459 55.7131 46.8034 55.1454C46.6525 55.0124 46.4762 54.9115 46.2851 54.8486C46.0941 54.7858 45.8923 54.7623 45.692 54.7796C45.4916 54.7967 45.2967 54.8541 45.1192 54.9486C44.9416 55.043 44.785 55.1724 44.6588 55.329L30.5998 72.4127C30.6977 71.2432 30.8717 70.0813 31.1208 68.9344C31.1896 68.6151 31.2666 68.2905 31.3517 67.9619C31.3974 67.7851 31.4487 67.6055 31.4994 67.4267C31.5001 67.4255 31.5007 67.4248 31.5014 67.4232V67.422C32.6642 63.3107 34.7645 59.8272 37.7419 57.0667C37.7547 57.0546 37.7603 57.0365 37.7723 57.0235C40.9274 54.1285 45.4219 51.6833 51.8197 50.3924C51.375 56.1111 48.685 72.7947 32.5455 74.8935ZM29.0782 9.39019C29.4875 9.38432 29.8777 9.21616 30.1631 8.92267C30.4484 8.62918 30.6056 8.2344 30.5999 7.82509V1.56506C30.6155 1.011 30.3287 0.492702 29.8515 0.211265C29.3743 -0.0701724 28.7819 -0.0703451 28.304 0.211265C28.0697 0.34944 27.8767 0.547904 27.745 0.785998C27.6134 1.02409 27.548 1.29311 27.5556 1.56506V7.82509C27.5442 8.67752 28.226 9.37792 29.0782 9.39019Z" fill="#0074D9"/>
<path d="M56.4746 28.1696H50.3867C49.9802 28.1824 49.5946 28.3529 49.3116 28.645C49.0285 28.9371 48.8702 29.3279 48.8702 29.7346C48.8702 30.1413 49.0285 30.5321 49.3116 30.8242C49.5946 31.1163 49.9802 31.2868 50.3867 31.2996H56.4746C56.8807 31.2861 57.2656 31.1153 57.5481 30.8233C57.8305 30.5313 57.9884 30.141 57.9884 29.7347C57.9884 29.3284 57.8305 28.9381 57.5481 28.6461C57.2656 28.354 56.8807 28.1831 56.4746 28.1696ZM9.29175 29.7349C9.29742 29.3255 9.14031 28.9307 8.85495 28.6372C8.56959 28.3436 8.17935 28.1755 7.77002 28.1696H1.68138C1.27434 28.1817 0.888028 28.3519 0.604392 28.6441C0.320755 28.9363 0.162109 29.3275 0.162109 29.7347C0.162109 30.1419 0.320755 30.5331 0.604392 30.8253C0.888028 31.1175 1.27434 31.2877 1.68138 31.2998H7.77002C8.17932 31.2939 8.56954 31.1258 8.85489 30.8323C9.14024 30.5388 9.29738 30.144 9.29175 29.7347V29.7349ZM24.6046 25.5316C24.6424 25.651 24.6943 25.7654 24.7592 25.8725C24.8933 26.0925 25.0808 26.275 25.3044 26.403C25.528 26.5311 25.7804 26.6004 26.038 26.6047H29.4339L26.2512 32.0596C26.0428 32.4154 25.9807 32.8382 26.0781 33.2388C26.1754 33.6395 26.4246 33.9866 26.773 34.2071C27.0075 34.3529 27.2782 34.4301 27.5544 34.43C27.8197 34.4293 28.0801 34.3587 28.3095 34.2254C28.5388 34.0922 28.7291 33.9008 28.861 33.6707L33.4272 25.8455C33.5575 25.6025 33.6255 25.3311 33.6252 25.0554C33.625 24.7797 33.5565 24.5084 33.4259 24.2656C33.2931 24.0344 33.1038 23.8406 32.8758 23.7024C32.6478 23.5642 32.3884 23.4861 32.122 23.4754H28.2826L30.4914 17.7963C30.643 17.4136 30.6392 16.9868 30.4809 16.6068C30.3226 16.2267 30.0223 15.9235 29.6438 15.7615C29.4569 15.6861 29.2567 15.6489 29.0552 15.652C28.8536 15.6552 28.6547 15.6987 28.4702 15.78C28.2857 15.8613 28.1194 15.9786 27.981 16.1252C27.8426 16.2718 27.735 16.4446 27.6644 16.6334L24.6208 24.4586C24.4958 24.8044 24.49 25.1822 24.6046 25.5316Z" fill="#0074D9"/>
</g>
<defs>
<clipPath id="clip0_1090_581">
<rect width="58.0947" height="78.25" fill="white"/>
</clipPath>
</defs>
</svg>
